<?xml version="1.0" standalone="no"?>
<!DOCTYPE svg PUBLIC "-//W3C//DTD SVG 20010904//EN"
 "http://www.w3.org/TR/2001/REC-SVG-20010904/DTD/svg10.dtd">
<svg version="1.0" xmlns="http://www.w3.org/2000/svg"
 width="700.000000pt" height="700.000000pt" viewBox="0 0 700.000000 700.000000"
 preserveAspectRatio="xMidYMid meet">
<metadata>
Created by potrace 1.14, written by Peter Selinger 2001-2017
</metadata>
<g transform="translate(0.000000,700.000000) scale(0.100000,-0.100000)"
fill="#000000" stroke="none">
<path d="M700 3489 l0 -3489 655 0 655 0 0 28 c1 15 1 1308 2 2875 l0 2847 22
1 c11 0 34 2 49 3 15 1 32 -3 36 -9 4 -5 28 -84 54 -175 76 -270 138 -494 142
-510 6 -27 162 -589 205 -740 11 -38 150 -538 154 -555 8 -30 168 -607 217
-781 22 -78 42 -150 44 -160 2 -10 14 -53 26 -94 11 -41 24 -88 29 -105 9 -34
22 -81 104 -375 32 -113 93 -333 136 -490 43 -157 115 -415 160 -575 45 -159
85 -306 90 -325 7 -31 40 -148 116 -415 14 -49 27 -99 30 -110 2 -11 24 -90
48 -175 l43 -155 1160 -3 1160 -2 -1 3487 -1 3488 -652 1 c-478 1 -653 -1
-655 -10 -2 -6 -4 -1299 -4 -2873 1 -1575 -1 -2864 -4 -2864 -20 -5 -91 -5
-98 0 -5 3 -41 121 -80 261 -93 336 -95 343 -98 355 -4 12 -43 154 -49 175 -2
8 -31 114 -65 235 -87 312 -84 302 -139 500 -27 99 -71 254 -96 345 -25 91
-55 199 -66 240 -11 41 -41 147 -65 235 -25 88 -56 198 -69 245 -13 47 -31
112 -40 145 -10 33 -19 67 -20 75 -2 8 -24 87 -49 175 -54 191 -336 1204 -341
1225 -4 19 -66 241 -145 525 -34 121 -65 234 -69 250 -8 30 -171 617 -197 711
l-15 51 -1159 1 -1160 0 0 -3489z"/>
</g>
</svg>
